# xmcd CD database file
#
# Track frame offsets:
#	150
#	11923
#	25745
#	44915
#	56794
#	70281
#	88976
#	99323
#	119584
#	131824
#	149554
#	165364
#	182449
#	199748
#	218962
#	241409
#	261493
#	279562
#	299194
#	324106
#
# Disc length: 4427 seconds
#
# Revision: 8
# Processed by: cddbd v1.5.2PL0 Copyright (c) Steve Scherf et al.
# Submitted via: CDex 1.51
#
DISCID=45114914
DTITLE=Manfed Krug - Das Beste Von Manfred Krug 1962 - 1977
DYEAR=2000
DGENRE=Deutsch
TTITLE0=Auf der Sonnenseite
TTITLE1=Wenn Du schläfst mein Kind
TTITLE2=Es steht ein Haus in New Orleans
TTITLE3=Du sagtest leider nur "Gut Nacht"
TTITLE4=Gestern war der Ball
TTITLE5=Als ich rief nach Dir
TTITLE6=Wenns draußen grün wird
TTITLE7=Kalt und weiß
TTITLE8=Sonntag
TTITLE9=Danke für den Abend
TTITLE10=Que sera
TTITLE11=The more I see you
TTITLE12=Niemand liebt Dich so wie ich
TTITLE13=Mach`s gut, ich muß gehn
TTITLE14=Du bist heute wie neu
TTITLE15=Sie
TTITLE16=Als der Opa von uns ging
TTITLE17=Damals, weißt Du noch
TTITLE18=Nacht, ich träume düster
TTITLE19=Alles geht einmal zu Ende
EXTD=YEAR: 2000
EXTT0=
EXTT1=
EXTT2=
EXTT3=
EXTT4=
EXTT5=
EXTT6=
EXTT7=
EXTT8=
EXTT9=
EXTT10=
EXTT11=
EXTT12=
EXTT13=
EXTT14=
EXTT15=
EXTT16=
EXTT17=
EXTT18=
EXTT19=
PLAYORDER=
